<?xml  version="1.0" encoding="UTF-8"?>
<!DOCTYPE svg PUBLIC "-//W3C//DTD SVG 1.0//EN" "http://www.w3.org/TR/2001/REC-SVG-20010904/DTD/svg10.dtd" >
<svg xmlns="http://www.w3.org/2000/svg" >
<metadata>
<version>1.0</version>
<id><![CDATA[Proxima N W01 Xbold It]]></id>
<vendor>Monotype Imaging Inc.</vendor>
<credits>
<name>Fonts.com WebFonts</name>
<URL>http://webfonts.fonts.com</URL>
<role>Home of the Web fonts</role>
</credits>
<license>
<URL>http://webfonts.fonts.com/Legal</URL>
</license>
<copyright><![CDATA[Copyright (c) Mark Simonson, 2005. All rights reserved.]]></copyright>
<trademark><![CDATA[Proxima Nova is a trademark of Mark Simonson.]]></trademark>
<licensee>
<name></name>
</licensee>
</metadata>
<defs >
<font horiz-adv-x="534" id="05216835-3a2b-4baa-8304-2984dda38122">
<font-face font-family="" panose-1="2 0 5 6 3 0 0 2 0 4" ascent="741" descent="-259" units-per-em="1000" alphabetic="0">
</font-face>
<missing-glyph horiz-adv-x="0" />

<glyph unicode="&#xA;" />
<glyph unicode="&#xD;" horiz-adv-x="0" />
<glyph unicode=" " horiz-adv-x="256" />
<glyph unicode="!" horiz-adv-x="270" d="M62 233L135 667H319L200 233H62ZM90 -12Q54 -12 30 13T5 74Q5 95 13 113T35 146T68 168T108 176Q126 176 141 169T168 151T186 123T193 89Q193 68 185 50T162 18T130 -4T90 -12Z"  />
<glyph unicode="&quot;" horiz-adv-x="438" d="M111 357Q111 414 112 462Q112 482 112 502T113 539T114 568T114 584Q114 604 121 621T141 650T171 670T207 677Q236 677 257 657T278 604Q278 594 275 585T270 571Q268 567 264 556T252 530T237 495T220 457Q200 412 176 357H111ZM312 357Q312 414 313 462Q313 482 313 502T314 539T314 568T315 584Q315 604 322 621T341 650T371 670T407 677Q436 677 457 657T478 604Q478 594 475 585T470 571Q468 567 464 556T452 530T437 495T420 457Q400 412 376 357H312Z"  />
<glyph unicode="#" horiz-adv-x="632" d="M193 0L284 164H197L107 0H-3L88 164H-4L48 259H141L223 407H130L181 501H275L367 667H477L386 501H472L563 667H674L582 501H675L625 407H530L447 259H543L492 164H394L304 0H193ZM419 407H333L251 259H336L419 407Z"  />
<glyph unicode="$" horiz-adv-x="625" d="M209 0Q142 14 89 43T2 115L107 239Q142 193 203 165T334 136Q376 136 393 153T411 189Q411 208 387 220T328 246T250 274T173 312T113 367T89 449Q89 491 106 531T158 604T243 657T359 677L380 768H491L467 664Q518 651 562 627T641 567L536 447Q516 468 492 484T441 510T387 525T335 530Q306 530 288 517T270 483Q270 465 294 453T354 428T431 400T509 361T569 305T593 223Q593 174 574 131T520 57T434 7T320 -12H317L298 -100H187L209 0Z"  />
<glyph unicode="%" horiz-adv-x="771" d="M76 0L649 667H736L162 0H76ZM542 -12Q509 -12 480 -3T427 25T391 69T377 128Q377 171 392 207T433 268T493 308T565 322Q598 322 628 313T681 285T717 241T731 182Q731 139 716 103T675 42T615 2T542 -12ZM546 80Q578 80 601 105T624 172Q624 197 607 213T562 230Q530 230 507 206T483 138Q483 113 500 97T546 80ZM244 343Q211 343 182 352T129 380T93 424T79 483Q79 526 94 562T135 623T195 663T267 677Q300 677 330 668T383 640T419 596T433 537Q433 493 418 458T377 397T317 357T244 343ZM248 435Q280 435 303 459T326 527Q326 552 309 568T264 585Q232 585 209 560T185 493Q185 467 202 451T248 435Z"  />
<glyph unicode="&amp;" horiz-adv-x="649" d="M402 0Q397 6 392 13T380 30Q343 10 304 -1T223 -12Q176 -12 135 -2T64 29T17 85T0 168Q0 216 15 251T57 312T118 356T189 387Q182 413 178 438T174 487Q174 528 190 562T234 622T302 662T386 677Q423 677 457 668T517 641T558 597T574 534Q574 490 557 460T510 408T444 373T369 345L399 289Q409 271 418 254T437 220Q463 246 483 274T519 330L627 262Q599 224 568 187T500 117Q519 88 538 60T581 0H402ZM249 107Q279 107 315 124Q301 147 289 167T268 202Q257 223 246 244T226 287Q199 270 183 246T167 187Q167 147 191 127T249 107ZM327 488Q327 463 335 433Q380 448 409 467T439 519Q439 544 426 556T392 568Q368 568 348 549T327 488Z"  />
<glyph unicode="&apos;" horiz-adv-x="239" d="M111 357Q111 414 112 462Q112 482 112 502T113 539T114 568T114 584Q114 604 121 621T141 650T171 670T207 677Q236 677 257 657T278 604Q278 594 275 585T270 571Q268 567 264 556T252 530T237 495T220 457Q200 412 176 357H111Z"  />
<glyph unicode="(" horiz-adv-x="322" d="M110 -199Q66 -140 45 -56T23 115Q23 193 43 272T99 425T188 566T304 685L385 603Q338 549 301 487T237 358T197 220T183 76Q183 21 194 -34T223 -135L110 -199Z"  />
<glyph unicode=")" horiz-adv-x="322" d="M210 685Q232 656 248 620T276 542T292 458T298 371Q298 292 278 213T221 60T133 -80T17 -199L-64 -117Q30 -8 83 127T137 409Q137 465 126 520T98 621L210 685Z"  />
<glyph unicode="*" horiz-adv-x="357" d="M165 355L195 466L91 420L71 485L176 523L92 581L142 638L218 572L237 677H311L280 565L383 612L405 547L301 509L384 451L333 394L256 459L239 355H165Z"  />
<glyph unicode="+" horiz-adv-x="507" d="M315 291L271 93H169L213 291H39L60 383H234L276 574H377L335 383H509L489 291H315Z"  />
<glyph unicode="&#x2c;" horiz-adv-x="270" d="M197 83Q197 52 185 20T151 -41T100 -94T35 -136L-18 -81Q-5 -75 10 -67T40 -47T67 -24T87 3Q85 2 81 2T75 2Q46 2 25 20T4 77Q4 97 13 115T36 146T68 168T107 176Q125 176 141 170T169 153T189 124T197 83Z"  />
<glyph unicode="-" horiz-adv-x="300" d="M15 178L44 307H284L255 178H15Z"  />
<glyph unicode="." horiz-adv-x="270" d="M90 -12Q54 -12 30 13T5 74Q5 95 13 113T35 146T68 168T108 176Q126 176 141 169T168 151T186 123T193 89Q193 68 185 50T162 18T130 -4T90 -12Z"  />
<glyph unicode="/" horiz-adv-x="346" d="M-61 -20L332 687H446L52 -20H-61Z"  />
<glyph unicode="0" horiz-adv-x="624" d="M287 -12Q232 -12 186 5T107 57T55 143T36 261Q36 345 61 420T132 553T239 643T376 677Q431 677 477 660T556 608T607 523T626 405Q626 321 601 246T531 113T424 22T287 -12ZM303 140Q340 140 368 166T415 232T443 321T453 413Q453 463 431 494T359 525Q322 525 294 499T247 433T218 345T208 254Q208 203 230 172T303 140Z"  />
<glyph unicode="1" horiz-adv-x="447" d="M161 0L259 447L123 334L47 437L331 667H480L333 0H161Z"  />
<glyph unicode="2" horiz-adv-x="607" d="M-10 0L24 157Q132 216 210 260T338 339T411 403T435 461Q435 492 405 509T327 527Q273 527 233 510T163 469L94 593Q141 633 206 655T341 677Q396 677 445 664T532 624T592 560T615 473Q615 382 535 305T302 150H547L513 0H-10Z"  />
<glyph unicode="3" horiz-adv-x="602" d="M292 -12Q244 -12 198 -3T111 23T37 66T-17 127L94 232Q112 208 136 191T186 163T240 146T291 140Q342 140 365 160T389 209Q389 219 385 228T368 245T335 256T280 261Q269 261 255 261T228 261T205 261T191 260L226 413Q230 413 241 413T267 412T296 412T320 412Q372 412 403 424T435 468Q435 496 404 511T315 526Q272 526 231 514T156 477L97 593Q139 631 199 654T332 677Q396 677 448 665T537 630T593 575T613 500Q613 468 597 441T556 392T498 357T433 338Q459 332 482 321T522 291T549 248T559 190Q559 145 538 108T480 45T395 3T292 -12Z"  />
<glyph unicode="4" horiz-adv-x="616" d="M287 0L314 122H-6L27 270L359 667H607L519 273H600L567 122H486L460 0H287ZM402 517L194 273H347L402 517Z"  />
<glyph unicode="5" horiz-adv-x="617" d="M304 -12Q203 -12 129 21T10 114L130 224Q157 186 202 163T306 140Q359 140 385 165T412 223Q412 257 381 275T298 294Q259 294 235 286T184 257L74 299L154 667H638L605 517H293L266 391Q293 413 322 423T395 433Q436 433 472 421T534 384T576 324T591 243Q591 191 571 145T513 64T422 9T304 -12Z"  />
<glyph unicode="6" horiz-adv-x="617" d="M310 -12Q245 -12 194 6T106 58T51 141T32 253Q32 339 57 416T131 551T248 643T405 677Q480 677 538 654T639 591L536 469Q510 497 473 511T394 525Q364 525 338 515T290 489T252 451T227 405Q223 398 221 390T217 375Q243 402 287 420T381 438Q426 438 465 425T533 388T579 328T596 250Q596 196 573 148T511 65T420 9T310 -12ZM310 140Q355 140 385 165T416 229Q416 245 407 258T381 281T344 296T298 301Q269 301 245 292T201 267Q200 262 200 254T199 239Q199 191 232 166T310 140Z"  />
<glyph unicode="7" horiz-adv-x="560" d="M60 0L397 517H81L114 667H637L610 548L257 0H60Z"  />
<glyph unicode="8" horiz-adv-x="618" d="M292 -12Q238 -12 187 -2T96 31T32 87T7 171Q7 231 51 283T183 361Q144 380 117 414T90 492Q90 541 114 576T178 634T267 666T365 677Q414 677 463 667T552 636T616 582T641 503Q641 471 630 443T596 393T544 354T476 328Q525 301 552 263T580 180Q580 133 556 97T491 37T399 1T292 -12ZM346 410Q395 413 426 429T457 472Q457 499 428 516T355 534Q318 534 291 518T263 474Q263 462 270 452T290 434T316 419T346 410ZM298 131Q343 131 374 149T405 195Q405 222 378 240T313 268Q288 267 266 262T226 247T199 225T189 195Q189 164 218 148T298 131Z"  />
<glyph unicode="9" horiz-adv-x="617" d="M345 678Q410 678 461 660T549 608T604 525T623 413Q623 327 598 250T524 115T407 23T250 -11Q174 -11 116 12T16 75L119 198Q145 169 182 155T261 141Q291 141 317 151T365 177T403 215T428 261Q431 268 433 276T437 290Q411 263 368 246T274 228Q229 228 190 241T122 278T75 337T58 416Q58 470 81 518T143 601T235 657T345 678ZM345 526Q299 526 269 501T238 437Q238 420 247 407T273 385T310 370T356 365Q385 365 409 374T454 399Q455 404 455 412T455 427Q455 450 446 468T422 499T387 519T345 526Z"  />
<glyph unicode=":" horiz-adv-x="270" d="M90 -12Q54 -12 30 13T5 74Q5 95 13 113T35 146T68 168T108 176Q126 176 141 169T168 151T186 123T193 89Q193 68 185 50T162 18T130 -4T90 -12ZM159 302Q123 302 98 327T73 389Q73 410 81 428T104 461T136 483T176 491Q194 491 209 484T237 465T255 438T262 404Q262 383 254 365T231 332T199 310T159 302Z"  />
<glyph unicode=";" horiz-adv-x="270" d="M197 83Q197 52 185 20T151 -41T100 -94T35 -136L-18 -81Q-5 -75 10 -67T40 -47T67 -24T87 3Q85 2 81 2T75 2Q46 2 25 20T4 77Q4 97 13 115T36 146T68 168T107 176Q125 176 141 170T169 153T189 124T197 83ZM159 302Q123 302 98 327T73 389Q73 410 81 428T104 461T136 483T176 491Q194 491 209 484T237 465T255 438T262 404Q262 383 254 365T231 332T199 310T159 302Z"  />
<glyph unicode="&lt;" horiz-adv-x="507" d="M36 279L61 390L552 580L527 466L152 329L467 195L443 90L36 279Z"  />
<glyph unicode="=" horiz-adv-x="507" d="M59 381L79 473H528L508 381H59ZM18 195L38 287H487L467 195H18Z"  />
<glyph unicode="&gt;" horiz-adv-x="507" d="M-6 90L20 204L395 338L80 475L103 580L510 390L485 279L-6 90Z"  />
<glyph unicode="?" horiz-adv-x="453" d="M159 214Q145 244 145 284Q145 321 158 346T190 390T231 420T273 443T305 464T318 490Q318 527 256 527Q230 527 202 517T151 487L79 606Q127 644 179 660T283 677Q326 677 365 667T435 639T482 593T500 529Q500 485 485 456T446 405T396 370T346 341T308 311T292 270Q292 267 293 261T300 248L159 214ZM182 -12Q164 -12 149 -5T122 13T104 40T97 74Q97 95 105 113T127 146T160 168T200 176Q218 176 233 169T260 151T278 123T285 89Q285 68 277 50T255 18T222 -4T182 -12Z"  />
<glyph unicode="@" horiz-adv-x="783" d="M372 -70Q304 -70 246 -46T146 20T79 120T55 244Q55 323 88 394T175 520T302 606T452 638Q524 638 582 614T682 549T745 453T767 337Q767 272 747 225T695 146T627 100T557 85Q509 85 486 106T456 155L455 162Q429 124 392 105T318 85Q281 85 252 98T203 134T173 188T162 256Q162 305 180 348T230 425T301 477T384 497Q428 497 459 480T507 436L517 484H653L604 254Q603 250 603 242T602 228Q602 206 611 197T634 187Q649 187 664 196T692 223T713 270T721 337Q721 395 702 443T648 525T562 577T448 596Q377 596 314 568T202 491T126 380T97 247Q97 188 118 138T176 50T265 -8T377 -29Q426 -29 471 -15T557 25L580 -7Q533 -37 481 -53T372 -70ZM375 192Q409 192 431 209T467 245L489 351Q481 365 465 378T419 391Q393 391 372 381T335 353T311 313T302 268Q302 233 321 213T375 192Z"  />
<glyph unicode="A" horiz-adv-x="697" d="M467 0L455 96H192L139 0H-65L333 667H549L654 0H467ZM412 497L272 246H442L412 497Z"  />
<glyph unicode="B" horiz-adv-x="680" d="M6 0L153 667H501Q548 667 583 653T641 617T676 565T688 504Q688 471 676 441T643 388T595 350T537 332Q585 319 608 281T632 199Q632 165 620 130T579 66T506 19T397 0H6ZM434 411Q454 411 467 416T489 431T500 451T504 474Q504 494 490 508T452 522H294L269 411H434ZM382 145Q419 145 439 164T460 213Q460 236 446 250T405 265H237L210 145H382Z"  />
<glyph unicode="C" horiz-adv-x="692" d="M374 -12Q303 -12 242 9T135 69T63 165T36 291Q36 378 67 449T153 572T278 650T430 678Q497 678 549 661T639 615T701 549T739 473L573 419Q559 470 519 498T422 526Q378 526 341 509T275 461T231 389T215 302Q215 268 227 239T260 187T313 153T384 140Q425 140 465 161T529 217L663 129Q633 88 597 61T522 18T446 -5T374 -12Z"  />
<glyph unicode="D" horiz-adv-x="727" d="M6 0L153 667H428Q483 667 536 647T631 589T698 498T724 380Q724 315 701 248T627 126T491 35T285 0H6ZM317 150Q371 150 413 167T485 215T530 284T546 368Q546 399 535 426T505 473T458 505T397 517H292L211 150H312H317Z"  />
<glyph unicode="E" horiz-adv-x="589" d="M6 0L153 667H642L608 517H292L269 413H579L546 263H236L211 150H528L495 0H6Z"  />
<glyph unicode="F" horiz-adv-x="582" d="M6 0L153 667H642L608 517H292L269 413H579L546 263H236L178 0H6Z"  />
<glyph unicode="G" horiz-adv-x="723" d="M374 -12Q305 -12 244 8T137 68T63 163T36 291Q36 374 66 445T150 567T280 648T447 678Q504 678 549 663T630 623T689 567T728 503L570 437Q564 455 550 471T517 499T473 519T422 526Q380 526 342 509T276 461T232 390T215 302Q215 270 226 241T259 189T312 153T384 140Q418 140 445 151T496 180L507 233H357L391 383H712L653 117Q605 56 534 22T374 -12Z"  />
<glyph unicode="H" horiz-adv-x="741" d="M455 0L514 268H237L178 0H6L153 667H325L270 418H547L602 667H774L627 0H455Z"  />
<glyph unicode="I" horiz-adv-x="292" d="M6 0L153 667H325L178 0H6Z"  />
<glyph unicode="J" horiz-adv-x="492" d="M168 -12Q140 -12 112 -8T58 5T8 27T-33 59L58 188Q73 168 99 154T155 140Q197 140 222 164T257 231L353 667H525L428 229Q401 105 339 47T168 -12Z"  />
<glyph unicode="K" horiz-adv-x="654" d="M407 0L283 257L221 195L178 0H6L153 667H325L268 406L521 667H742L415 355L609 0H407Z"  />
<glyph unicode="L" horiz-adv-x="529" d="M6 0L153 667H325L211 150H479L446 0H6Z"  />
<glyph unicode="M" horiz-adv-x="877" d="M591 0L688 441L422 0H346L275 441L178 0H6L153 667H386L444 298L665 667H910L763 0H591Z"  />
<glyph unicode="N" horiz-adv-x="740" d="M460 0L266 398L178 0H6L153 667H330L516 288L600 667H773L626 0H460Z"  />
<glyph unicode="O" horiz-adv-x="766" d="M374 -12Q302 -12 241 9T134 71T62 166T36 291Q36 372 66 442T148 565T273 648T430 678Q502 678 563 657T670 596T742 501T768 377Q768 296 738 225T656 102T531 19T374 -12ZM384 140Q428 140 465 157T530 205T573 277T589 364Q589 400 577 430T542 481T488 514T420 526Q376 526 339 509T274 461T231 389T215 302Q215 266 227 236T262 185T316 152T384 140Z"  />
<glyph unicode="P" horiz-adv-x="643" d="M6 0L153 667H476Q520 667 556 652T618 611T658 550T672 476Q672 439 659 395T612 313T524 250T387 224H227L178 0H6ZM396 374Q438 374 466 397T494 457Q494 485 475 501T425 517H292L260 374H396Z"  />
<glyph unicode="Q" horiz-adv-x="766" d="M374 -12Q302 -12 241 9T134 71T62 166T36 291Q36 372 66 442T148 565T273 648T430 678Q502 678 563 657T670 596T742 501T768 377Q768 282 728 203T619 69L650 18L513 -45L484 2Q430 -12 374 -12ZM401 140L354 218L492 282L534 210Q560 240 574 279T589 364Q589 400 577 430T542 481T488 514T420 526Q376 526 339 509T274 461T231 389T215 302Q215 266 227 236T262 185T316 152T384 140H401Z"  />
<glyph unicode="R" horiz-adv-x="661" d="M385 0L323 224H227L178 0H6L153 667H457Q500 667 539 654T608 615T655 553T673 472Q673 427 659 389T621 319T565 267T495 236L575 0H385ZM397 374Q441 374 467 395T494 454Q494 482 473 499T423 517H292L260 374H394H397Z"  />
<glyph unicode="S" horiz-adv-x="606" d="M308 -12Q257 -12 210 -3T121 23T47 63T-10 115L95 239Q130 193 191 165T322 136Q364 136 381 153T399 189Q399 208 375 220T316 246T238 274T161 312T101 367T77 449Q77 491 95 532T147 605T233 657T350 677Q431 677 504 649T629 567L524 447Q504 468 480 484T429 510T375 525T323 530Q294 530 276 517T258 483Q258 465 282 453T342 428T419 400T497 361T557 305T581 223Q581 174 562 131T508 57T422 7T308 -12Z"  />
<glyph unicode="T" horiz-adv-x="589" d="M155 0L268 517H81L115 667H660L627 517H440L327 0H155Z"  />
<glyph unicode="U" horiz-adv-x="750" d="M366 -12Q289 -12 232 5T136 54T79 129T60 226Q60 234 61 248T65 270L153 667H328L241 274Q238 266 238 246Q238 225 246 206T270 171T310 147T366 138Q435 138 472 176T522 274L609 667H783L696 271Q682 210 658 159T595 69T500 10T366 -12Z"  />
<glyph unicode="V" horiz-adv-x="697" d="M186 0L82 667H268L327 186L597 667H801L402 0H186Z"  />
<glyph unicode="W" horiz-adv-x="936" d="M515 0L506 418L313 0H131L87 667H276L279 222L491 667H622L638 222L837 667H1035L697 0H515Z"  />
<glyph unicode="X" horiz-adv-x="676" d="M438 0L335 214L148 0H-65L250 352L97 667H291L383 467L551 667H764L469 332L632 0H438Z"  />
<glyph unicode="Y" horiz-adv-x="655" d="M188 0L247 269L82 667H267L358 421L555 667H759L419 269L360 0H188Z"  />
<glyph unicode="Z" horiz-adv-x="596" d="M-15 0L15 137L374 517H99L132 667H643L613 530L253 150H536L503 0H-15Z"  />
<glyph unicode="[" horiz-adv-x="298" d="M-47 -190L147 678H377L355 579H233L85 -91H206L184 -190H-47Z"  />
<glyph unicode="\" horiz-adv-x="346" d="M98 687H207L287 -20H178L98 687Z"  />
<glyph unicode="]" horiz-adv-x="298" d="M-78 -190L-57 -91H65L214 579H92L114 678H344L151 -190H-78Z"  />
<glyph unicode="^" horiz-adv-x="445" d="M341 333L298 564L154 333H38L261 667H372L445 333H341Z"  />
<glyph unicode="_" horiz-adv-x="564" d="M-88 -139L-65 -40H504L481 -139H-88Z"  />
<glyph unicode="`" horiz-adv-x="263" d="M228 556L101 700H237L332 556H228Z"  />
<glyph unicode="a" horiz-adv-x="591" d="M274 495Q319 495 358 478T421 426L434 483H587L480 0H327L339 56Q308 21 275 5T201 -12Q120 -12 70 39T20 188Q20 240 36 295T84 394T163 466T274 495ZM301 359Q274 359 252 348T214 318T188 274T179 220Q179 176 206 150T273 124Q300 124 323 136T364 169L397 315Q382 335 357 347T301 359Z"  />
<glyph unicode="b" horiz-adv-x="591" d="M315 -12Q270 -12 231 5T168 57L156 0H2L149 667H303L250 427Q282 463 315 479T388 495Q470 495 520 443T570 294Q570 242 554 188T506 89T426 17T315 -12ZM289 124Q315 124 337 135T376 165T402 209T411 262Q411 307 384 333T317 359Q290 359 267 347T225 314L193 168Q208 148 233 136T289 124Z"  />
<glyph unicode="c" horiz-adv-x="500" d="M267 -12Q210 -12 165 4T87 50T38 120T21 210Q21 270 43 322T103 412T194 473T307 495Q386 495 436 467T512 397L397 310Q384 331 361 345T306 359Q277 359 254 348T213 318T187 274T177 219Q177 174 207 149T282 124Q310 124 333 136T373 167L456 66Q443 52 425 38T382 13T329 -5T267 -12Z"  />
<glyph unicode="d" horiz-adv-x="591" d="M274 495Q319 495 358 478T421 426L475 667H628L480 0H327L339 56Q308 21 275 5T201 -12Q120 -12 70 39T20 188Q20 240 36 295T84 394T163 466T274 495ZM301 359Q274 359 252 348T214 318T188 274T179 220Q179 176 206 150T273 124Q300 124 323 136T364 169L397 315Q382 335 357 347T301 359Z"  />
<glyph unicode="e" horiz-adv-x="548" d="M278 -12Q220 -12 173 2T92 45T40 114T21 207Q21 265 42 317T100 409T190 472T304 495Q350 495 390 481T461 439T508 371T526 277Q526 254 523 230T516 193H174V187Q174 178 181 165T202 138T238 116T290 107Q320 107 351 115T403 137L450 35Q415 11 369 0T278 -12ZM389 293Q390 294 390 296T390 300Q390 312 385 325T369 349T340 368T297 376Q275 376 257 368T224 348T201 322T189 293H389Z"  />
<glyph unicode="f" horiz-adv-x="349" d="M35 0L112 350H32L62 483H141L147 509Q155 543 170 574T210 627T268 663T345 677Q384 677 420 665T483 627L410 540Q390 560 358 560Q333 560 320 546T301 506L295 483H394L364 350H266L189 0H35Z"  />
<glyph unicode="g" horiz-adv-x="590" d="M212 -196Q139 -196 78 -177T-30 -111L57 -9Q69 -24 86 -35T123 -54T165 -66T209 -70Q229 -70 248 -65T284 -48T314 -13T335 43L343 78Q316 45 280 27T203 8Q167 8 134 18T76 52T35 113T20 203Q20 257 37 309T86 403T164 469T271 495Q312 495 352 477T419 426L433 483H586L488 43Q472 -31 442 -77T373 -150T293 -186T212 -196ZM276 144Q302 144 326 156T367 189L394 310Q362 359 292 359Q244 359 212 325T179 233Q179 194 206 169T276 144Z"  />
<glyph unicode="h" horiz-adv-x="594" d="M330 0L389 274Q391 281 392 290T394 306Q394 335 373 347T321 359Q292 359 267 344T225 312L157 0H3L150 667H304L249 424Q263 437 279 449T314 472T356 488T406 495Q479 495 520 460T561 370Q561 362 560 350T556 330L484 0H330Z"  />
<glyph unicode="i" horiz-adv-x="266" d="M205 526Q170 526 148 548T125 602Q125 626 134 645T158 677T190 696T225 703Q260 703 282 681T304 628Q304 604 295 585T271 553T239 533T205 526ZM2 0L109 483H263L156 0H2Z"  />
<glyph unicode="j" horiz-adv-x="266" d="M-46 -196Q-144 -196 -190 -156L-128 -46Q-117 -59 -102 -64T-69 -70Q-15 -70 2 4L109 483H263L156 4Q147 -40 131 -76T91 -139T33 -181T-46 -196ZM205 526Q170 526 148 548T125 602Q125 626 134 645T158 677T190 696T225 703Q260 703 282 681T304 628Q304 604 295 585T271 553T239 533T205 526Z"  />
<glyph unicode="k" horiz-adv-x="546" d="M313 0L243 174L181 116L156 0H2L149 667H303L221 298L404 483H596L369 263L498 0H313Z"  />
<glyph unicode="l" horiz-adv-x="266" d="M2 0L149 667H303L156 0H2Z"  />
<glyph unicode="m" horiz-adv-x="875" d="M611 0L671 273Q672 279 674 289T676 307Q676 333 658 346T613 359Q587 359 566 345T529 312L460 0H306L366 273Q368 281 370 291T372 309Q372 332 356 345T309 359Q283 359 261 344T225 312L156 0H2L109 483H263L249 424Q259 434 273 446T305 470T345 488T394 495Q431 495 458 484T501 457T526 426T534 405V404Q548 421 565 437T602 466T646 487T699 495Q727 495 753 487T799 463T831 424T843 370Q843 359 841 347T838 330L764 0H611Z"  />
<glyph unicode="n" horiz-adv-x="593" d="M329 0L389 271Q391 278 392 287T394 306Q394 335 374 347T328 359Q294 359 268 344T225 312L156 0H2L109 483H263L249 424Q263 437 279 449T314 472T356 488T406 495Q479 495 520 460T561 370Q561 363 560 351T556 330L483 0H329Z"  />
<glyph unicode="o" horiz-adv-x="576" d="M269 -12Q208 -12 162 5T84 52T36 122T20 210Q20 266 41 317T99 408T189 471T304 495Q365 495 411 478T489 431T537 360T553 272Q553 216 532 165T474 74T384 12T269 -12ZM275 124Q302 124 324 136T362 167T387 212T396 265Q396 310 370 334T299 359Q272 359 250 347T211 316T187 271T178 218Q178 173 204 149T275 124Z"  />
<glyph unicode="p" horiz-adv-x="589" d="M315 -12Q270 -12 231 5T168 57L115 -184H-39L109 483H263L250 427Q282 463 315 479T388 495Q470 495 520 443T570 294Q570 242 554 188T506 89T426 17T315 -12ZM289 124Q315 124 337 135T376 165T402 209T411 262Q411 307 384 333T317 359Q290 359 267 347T225 314L193 168Q208 148 233 136T289 124Z"  />
<glyph unicode="q" horiz-adv-x="589" d="M274 495Q319 495 358 478T421 426L434 483H587L439 -184H286L339 56Q308 21 275 5T201 -12Q120 -12 70 39T20 188Q20 240 36 295T84 394T163 466T274 495ZM301 359Q274 359 252 348T214 318T188 274T179 220Q179 176 206 150T273 124Q300 124 323 136T364 169L397 315Q382 335 357 347T301 359Z"  />
<glyph unicode="r" horiz-adv-x="375" d="M2 0L109 483H263L250 425Q279 457 320 476T417 496L383 345Q377 347 364 349T333 352Q301 352 272 339T223 304L156 0H2Z"  />
<glyph unicode="s" horiz-adv-x="484" d="M225 -12Q158 -12 95 10T-14 76L67 175Q78 163 97 150T139 126T187 107T239 100Q262 100 276 110T290 135Q290 151 272 160T228 178T170 196T113 222T68 262T50 325Q50 358 63 388T103 442T168 480T257 495Q318 495 375 475T472 417L398 322Q389 332 374 342T340 362T300 376T257 382Q230 382 217 372T203 348Q203 335 221 327T265 311T323 292T381 266T426 224T444 162Q444 126 429 94T386 39T317 2T225 -12Z"  />
<glyph unicode="t" horiz-adv-x="360" d="M221 -12Q186 -12 157 -5T106 16T73 51T61 102Q61 107 61 117T64 137L111 350H31L61 483H141L170 615H324L295 483H393L363 350H265L229 186Q226 174 226 164Q226 146 237 135T272 124Q280 124 289 126T302 132L304 9Q290 -2 268 -7T221 -12Z"  />
<glyph unicode="u" horiz-adv-x="592" d="M262 483L201 204Q199 197 198 191T197 178Q197 149 218 137T268 124Q299 124 324 139T367 172L435 483H589L482 0H328L342 59Q328 46 312 34T277 11T235 -5T185 -12Q112 -12 71 23T30 113Q30 120 31 132T35 153L109 483H262Z"  />
<glyph unicode="v" horiz-adv-x="524" d="M126 0L43 483H201L241 177L420 483H587L290 0H126Z"  />
<glyph unicode="w" horiz-adv-x="787" d="M430 0L405 299L249 0H83L47 483H201L212 187L374 483H511L540 187L683 483H846L596 0H430Z"  />
<glyph unicode="x" horiz-adv-x="512" d="M300 0L239 146L113 0H-60L159 248L57 483H222L275 352L386 483H560L353 248L464 0H300Z"  />
<glyph unicode="y" horiz-adv-x="524" d="M1 -52Q10 -56 23 -57T51 -59Q70 -59 83 -53T106 -33L125 -2L43 483H201L241 177L420 483H587L246 -69Q224 -105 202 -129T155 -168T102 -189T41 -196Q18 -196 -5 -193T-48 -184L1 -52Z"  />
<glyph unicode="z" horiz-adv-x="483" d="M-16 0L8 113L250 349H61L91 483H494L469 374L223 133H420L391 0H-16Z"  />
<glyph unicode="{" horiz-adv-x="302" d="M144 -190Q113 -190 86 -180T37 -151T4 -107T-8 -51Q-8 -34 -4 -19L31 137Q32 142 32 146T33 155Q33 176 23 189T-7 203L12 285Q41 285 56 304T78 351L113 506Q133 596 187 637T321 678H381L359 579H299Q238 579 221 506L180 323Q173 291 158 266T115 233Q144 216 144 176Q144 168 143 160T140 142L104 -18Q103 -23 103 -27T102 -36Q102 -61 118 -76T157 -91H211L188 -190H144Z"  />
<glyph unicode="|" horiz-adv-x="219" d="M80 -20V687H179V-20H80Z"  />
<glyph unicode="}" horiz-adv-x="302" d="M157 678Q188 678 215 668T264 639T297 595T309 539Q309 521 305 506L270 351Q269 346 269 342T268 333Q268 311 278 298T308 285L289 203Q260 203 245 184T223 137L189 -18Q169 -108 114 -149T-20 -190H-80L-58 -91H2Q63 -91 80 -19L121 165Q128 197 143 222T186 255Q157 272 157 312Q157 320 158 328T161 346L197 506Q198 511 198 515T199 523Q199 549 183 564T144 579H90L113 678H157Z"  />
<glyph unicode="~" horiz-adv-x="514" d="M579 655Q569 610 555 566T517 487T462 429T385 407Q348 407 328 419T297 451T283 491T278 532T270 563T252 576Q238 576 225 561T200 521T179 466T163 406L63 418Q72 464 87 508T125 588T181 645T258 667Q295 667 315 655T346 623T360 582T365 541T373 510T391 497Q404 497 418 512T444 553T466 608T481 667L579 655Z"  />
<glyph unicode="&#xA0;" horiz-adv-x="256" />
<glyph unicode="&#xA1;" horiz-adv-x="270" d="M204 250L131 -184H-53L66 250H204ZM176 495Q212 495 237 470T262 408Q262 387 254 369T231 337T199 315T159 307Q141 307 126 314T98 332T80 359T73 393Q73 414 81 432T104 465T136 487T176 495Z"  />
<glyph unicode="&#xA2;" horiz-adv-x="500" d="M180 0Q105 21 63 76T21 210Q21 267 41 317T98 406T183 468T290 494L306 565H415L397 482Q438 470 466 448T512 397L397 310Q384 331 361 345T306 359Q277 359 254 348T213 318T187 274T177 219Q177 174 207 149T282 124Q310 124 333 136T373 167L456 66Q432 40 389 17T286 -11L267 -100H158L180 0Z"  />
<glyph unicode="&#xA3;" horiz-adv-x="565" d="M51 365H112Q103 386 96 409T89 460Q89 506 111 545T170 614T256 660T361 677Q453 677 520 642T611 536L456 473Q450 505 426 521T369 538Q328 538 302 510T276 439Q276 417 282 400T294 365H433L411 269H299Q288 231 264 202T217 162Q242 169 260 169Q281 169 297 165T329 155T360 145T396 140Q422 140 440 150T472 175L508 39Q489 17 459 3T381 -12Q349 -12 318 -6T257 9T203 24T157 31Q107 31 47 -7L15 108Q69 132 104 173T140 263V269H29L51 365Z"  />
<glyph unicode="&#xA4;" horiz-adv-x="635" d="M319 85Q280 85 244 93T177 118L79 39L0 137L88 209Q68 252 68 304Q68 355 86 401T136 485L81 557L182 638L242 559Q295 581 354 581Q398 581 434 572T499 545L593 621L671 526L583 454Q593 432 598 409T604 360Q604 309 586 263T535 179L590 111L489 30L429 105Q377 85 319 85ZM224 314Q224 273 251 247T327 220Q353 220 375 230T414 257T440 298T449 348Q449 388 424 416T344 445Q317 445 295 435T257 406T233 364T224 314Z"  />
<glyph unicode="&#xA5;" horiz-adv-x="655" d="M189 0L213 111H-6L14 203H233L248 269H29L50 361H210L83 667H268L359 421L556 667H760L498 361H658L637 269H420L405 203H622L602 111H385L361 0H189Z"  />
<glyph unicode="&#xA6;" horiz-adv-x="219" d="M80 -20V296H179V-20H80ZM80 371V687H179V371H80Z"  />
<glyph unicode="&#xA7;" horiz-adv-x="492" d="M482 338Q482 313 474 290T450 247T415 213T370 189Q399 172 413 146T427 91Q427 54 411 23T367 -32T299 -68T213 -81Q137 -81 72 -59T-37 4L45 95Q60 79 79 66T120 44T166 29T213 24Q242 24 258 37T274 67Q274 85 257 96T213 117T156 137T99 163T56 203T38 266Q38 317 67 353T156 410Q126 425 109 452T92 514Q92 551 108 581T151 632T217 665T300 677Q378 677 432 658T521 604L444 520Q422 543 384 557T306 571Q273 571 259 559T244 530Q244 513 261 503T305 484T363 465T420 440T464 400T482 338ZM323 303Q323 327 306 341T266 361Q228 355 210 337T192 296Q192 273 212 259T262 236Q294 244 308 263T323 303Z"  />
<glyph unicode="&#xA8;" horiz-adv-x="306" d="M421 623Q421 606 414 590T394 562T365 543T332 536Q303 536 283 556T263 606Q263 623 270 639T290 667T319 686T352 693Q381 693 401 673T421 623ZM208 623Q208 606 201 590T181 562T152 543T119 536Q89 536 69 556T49 606Q49 623 56 639T76 667T105 686T138 693Q168 693 188 673T208 623Z"  />
<glyph unicode="&#xA9;" horiz-adv-x="778" d="M754 334Q754 263 727 200T653 90T543 16T408 -11Q337 -11 274 16T165 90T91 200T64 334Q64 406 91 468T164 578T274 652T408 679Q480 679 543 652T653 578T727 469T754 334ZM715 334Q715 397 691 452T625 550T527 616T408 640Q345 640 290 616T193 550T127 453T103 334Q103 271 127 216T192 118T289 52T408 28Q471 28 527 52T624 118T690 215T715 334ZM535 179Q508 156 471 140T394 124Q350 124 315 138T255 176T217 234T203 307Q203 358 222 401T273 476T348 526T435 544Q486 544 528 524T596 463L554 434Q517 501 432 501Q399 501 367 487T310 447T269 386T253 309Q253 281 262 255T290 210T334 179T395 167Q427 167 456 181T507 216L535 179Z"  />
<glyph unicode="&#xAA;" horiz-adv-x="415" d="M270 562Q252 562 237 554T210 533T193 501T186 464Q186 433 203 419T245 405Q260 405 275 412T301 430L326 541Q316 552 301 557T270 562ZM457 640L388 326H278L285 361Q265 338 244 328T196 318Q171 318 149 326T110 351T83 392T73 450Q73 492 86 528T122 591T175 633T240 648Q272 648 297 638T340 605L348 640H457Z"  />
<glyph unicode="&#xAB;" horiz-adv-x="571" d="M149 63L29 243L229 420H372L168 238L284 63H149ZM361 63L241 243L441 420H584L380 238L496 63H361Z"  />
<glyph unicode="&#xAC;" horiz-adv-x="521" d="M467 195H373L413 381H59L79 473H528L467 195Z"  />
<glyph unicode="&#xAD;" horiz-adv-x="300" d="M15 178L44 307H284L255 178H15Z"  />
<glyph unicode="&#xAE;" horiz-adv-x="494" d="M508 465Q508 421 492 383T446 315T378 270T295 253Q251 253 213 269T146 315T101 382T84 465Q84 509 100 548T146 615T213 660T296 677Q340 677 379 661T446 616T491 548T508 465ZM474 465Q474 502 460 534T422 591T365 629T295 643Q258 643 226 629T169 591T131 535T117 465Q117 428 131 396T169 339T225 300T295 286Q332 286 364 300T421 338T460 395T474 465ZM328 343L286 439H244L223 343H187L240 586H334Q367 586 386 567T406 522Q406 505 399 490T381 464T356 447T326 440L370 343H328ZM368 520Q368 535 359 545T326 556H270L251 470H314Q340 470 354 485T368 520Z"  />
<glyph unicode="&#xAF;" horiz-adv-x="363" d="M69 556L88 641H450L431 556H69Z"  />
<glyph unicode="&#xB0;" horiz-adv-x="321" d="M367 535Q367 505 356 480T326 435T280 404T224 393Q195 393 169 404T124 434T94 479T83 535Q83 564 94 590T124 635T169 666T224 677Q254 677 280 666T325 636T356 590T367 535ZM287 535Q287 561 269 579T224 598Q198 598 181 580T163 535Q163 509 180 491T223 473Q249 473 268 491T287 535Z"  />
<glyph unicode="&#xB1;" horiz-adv-x="507" d="M322 327L278 129H177L221 327H47L67 419H241L284 609H385L342 419H516L496 327H322ZM-25 0L-5 92H444L424 0H-25Z"  />
<glyph unicode="&#xB2;" horiz-adv-x="402" d="M83 421L102 507Q181 552 230 582T306 632T342 667T351 696Q351 716 335 726T292 737Q259 737 229 724T180 694L134 770Q166 798 210 812T297 827Q335 827 366 819T421 795T456 757T469 707Q469 657 420 612T269 511H429L409 421H83Z"  />
<glyph unicode="&#xB3;" horiz-adv-x="402" d="M438 532Q438 510 427 489T396 452T345 425T275 414Q212 414 161 434T87 488L156 558Q177 529 208 517T269 504Q299 504 312 516T325 545Q325 562 303 570T241 579Q233 579 222 579T206 578L225 667Q229 667 237 667T256 666T276 666T292 666Q354 666 354 702Q354 720 332 728T281 737Q254 737 228 729T179 703L143 774Q172 799 212 813T293 827Q375 827 422 798T470 718Q470 683 443 653T360 619Q393 611 415 590T438 532Z"  />
<glyph unicode="&#xB4;" horiz-adv-x="263" d="M173 556H67L226 700H364L173 556Z"  />
<glyph unicode="&#xB5;" horiz-adv-x="606" d="M113 -184H-40L111 483H265L202 203Q192 163 210 144T263 124Q296 124 322 139T366 171L435 483H588L518 162Q513 143 521 134T546 124Q558 124 566 127L547 -3Q533 -8 513 -10T476 -12Q363 -12 353 75Q326 37 288 13T207 -12Q190 -12 176 -8T156 5L113 -184Z"  />
<glyph unicode="&#xB6;" horiz-adv-x="449" d="M267 -100L421 596H348L193 -100H122L216 323Q188 323 163 334T120 367T90 416T79 479Q79 514 93 548T134 608T195 651T273 667H508L338 -100H267Z"  />
<glyph unicode="&#xB7;" horiz-adv-x="270" d="M126 151Q90 151 65 176T40 238Q40 259 48 277T71 310T103 332T143 340Q161 340 176 333T203 314T221 287T228 253Q228 232 220 214T198 181T166 159T126 151Z"  />
<glyph unicode="&#xB8;" horiz-adv-x="229" d="M35 -198Q-7 -198 -39 -185T-89 -155L-50 -101Q-32 -118 -10 -127T35 -137Q55 -137 67 -130T79 -107Q79 -99 73 -93T53 -87Q37 -87 26 -100L-20 -70L29 11H100L61 -49Q69 -44 75 -42T91 -39Q117 -39 134 -56T151 -103Q151 -148 117 -173T35 -198Z"  />
<glyph unicode="&#xB9;" horiz-adv-x="311" d="M176 421L231 672L149 606L98 675L280 821H378L290 421H176Z"  />
<glyph unicode="&#xBA;" horiz-adv-x="405" d="M241 318Q202 318 171 329T118 360T85 406T73 465Q73 505 89 538T132 596T194 634T267 648Q306 648 337 637T390 606T423 559T435 500Q435 460 419 427T376 369T314 332T241 318ZM244 405Q265 405 279 414T303 437T317 468T322 502Q322 529 307 544T264 559Q243 559 229 550T205 527T191 496T186 462Q186 435 201 420T244 405Z"  />
<glyph unicode="&#xBB;" horiz-adv-x="571" d="M212 420L332 240L132 63H-11L193 245L77 420H212ZM424 420L544 240L344 63H201L405 245L289 420H424Z"  />
<glyph unicode="&#xBC;" horiz-adv-x="865" d="M142 267L197 518L115 452L64 521L246 667H344L256 267H142ZM759 78L743 0H630L646 78H450L467 155L671 400H831L779 167H829L809 78H759ZM696 301L582 167H666L696 301ZM185 0H99L672 667H760L185 0Z"  />
<glyph unicode="&#xBD;" horiz-adv-x="897" d="M142 267L197 518L115 452L64 521L246 667H344L256 267H142ZM484 0L503 86Q582 131 631 161T707 211T743 246T752 275Q752 295 736 305T693 316Q660 316 630 303T581 273L535 349Q567 377 611 391T698 406Q736 406 767 398T822 374T857 336T870 286Q870 236 821 191T670 90H830L810 0H484ZM185 0H99L672 667H760L185 0Z"  />
<glyph unicode="&#xBE;" horiz-adv-x="942" d="M836 78L820 0H707L723 78H527L544 155L748 400H908L856 167H906L886 78H836ZM773 301L659 167H743L773 301ZM262 0H176L749 667H837L262 0ZM404 378Q404 356 393 335T362 298T311 271T241 260Q178 260 127 280T53 334L122 404Q143 375 174 363T235 350Q265 350 278 362T291 391Q291 408 269 416T207 425Q199 425 188 425T172 424L191 513Q195 513 203 513T222 512T242 512T258 512Q320 512 320 548Q320 566 298 574T247 583Q220 583 194 575T145 549L109 620Q138 645 178 659T259 673Q341 673 388 644T436 564Q436 529 409 499T326 465Q359 457 381 436T404 378Z"  />
<glyph unicode="&#xBF;" horiz-adv-x="399" d="M293 268Q306 241 306 198Q306 161 294 136T262 92T220 62T179 39T147 18T134 -8Q134 -45 196 -45Q222 -45 250 -35T301 -5L373 -124Q325 -162 273 -178T169 -195Q125 -195 86 -185T17 -157T-30 -111T-48 -47Q-48 -3 -33 26T6 77T56 112T106 141T144 171T160 212Q160 215 159 222T152 234L293 268ZM269 494Q287 494 302 487T330 469T348 442T355 408Q355 387 347 369T324 336T292 314T252 306Q216 306 192 331T167 393Q167 414 175 432T197 464T229 486T269 494Z"  />
<glyph unicode="&#xC0;" horiz-adv-x="697" d="M467 0L455 96H192L139 0H-65L333 667H549L654 0H467ZM412 497L272 246H442L412 497ZM417 723L290 867H426L521 723H417Z"  />
<glyph unicode="&#xC1;" horiz-adv-x="697" d="M467 0L455 96H192L139 0H-65L333 667H549L654 0H467ZM412 497L272 246H442L412 497ZM492 723H386L545 867H683L492 723Z"  />
<glyph unicode="&#xC2;" horiz-adv-x="697" d="M524 723L473 804L389 723H296L418 867H553L614 723H524ZM467 0L455 96H192L139 0H-65L333 667H549L654 0H467ZM412 497L272 246H442L412 497Z"  />
<glyph unicode="&#xC3;" horiz-adv-x="697" d="M467 0L455 96H192L139 0H-65L333 667H549L654 0H467ZM412 497L272 246H442L412 497ZM525 721Q499 721 483 729T454 748T430 767T403 776Q377 776 367 727H288Q301 794 328 827T412 861Q438 861 454 853T483 834T507 815T534 806Q559 806 571 855H650Q636 789 609 755T525 721Z"  />
<glyph unicode="&#xC4;" horiz-adv-x="697" d="M653 790Q653 773 646 757T626 729T597 710T564 703Q535 703 515 723T495 773Q495 790 502 806T522 834T551 853T584 860Q613 860 633 840T653 790ZM440 790Q440 773 433 757T413 729T384 710T351 703Q321 703 301 723T281 773Q281 790 288 806T308 834T337 853T370 860Q400 860 420 840T440 790ZM467 0L455 96H192L139 0H-65L333 667H549L654 0H467ZM412 497L272 246H442L412 497Z"  />
<glyph unicode="&#xC5;" horiz-adv-x="697" d="M467 0L455 96H192L139 0H-65L333 667H549L654 0H467ZM412 497L272 246H442L412 497ZM459 687Q414 687 387 714T360 786Q360 810 369 831T395 869T433 894T479 904Q524 904 551 877T578 805Q578 781 569 760T543 722T505 697T459 687ZM466 756Q483 756 496 768T509 799Q509 816 499 826T472 836Q455 836 442 823T429 793Q429 776 439 766T466 756Z"  />
<glyph unicode="&#xC6;" horiz-adv-x="979" d="M400 0L421 96H204L130 0H-71L476 667H1036L1002 517H686L663 413H973L939 263H630L605 150H922L889 0H400ZM507 489L318 246H454L507 489Z"  />
<glyph unicode="&#xC7;" horiz-adv-x="692" d="M302 -198Q260 -198 228 -185T178 -155L217 -101Q235 -118 257 -127T302 -137Q322 -137 334 -130T346 -107Q346 -99 340 -93T320 -87Q304 -87 293 -100L247 -70L287 -3Q233 8 187 33T108 96T55 183T36 291Q36 378 67 449T153 572T278 650T430 678Q497 678 549 661T639 615T701 549T739 473L573 419Q559 470 519 498T422 526Q378 526 341 509T275 461T231 389T215 302Q215 268 227 239T260 187T313 153T384 140Q425 140 465 161T529 217L663 129Q633 88 597 61T522 18T446 -5T374 -12Q369 -12 363 -12T352 -11L328 -49Q336 -44 342 -42T358 -39Q384 -39 401 -56T418 -103Q418 -148 384 -173T302 -198Z"  />
<glyph unicode="&#xC8;" horiz-adv-x="589" d="M6 0L153 667H642L608 517H292L269 413H579L546 263H236L211 150H528L495 0H6ZM372 723L245 867H381L476 723H372Z"  />
<glyph unicode="&#xC9;" horiz-adv-x="589" d="M447 723H341L500 867H638L447 723ZM6 0L153 667H642L608 517H292L269 413H579L546 263H236L211 150H528L495 0H6Z"  />
<glyph unicode="&#xCA;" horiz-adv-x="589" d="M478 723L427 804L343 723H250L372 867H507L568 723H478ZM6 0L153 667H642L608 517H292L269 413H579L546 263H236L211 150H528L495 0H6Z"  />
<glyph unicode="&#xCB;" horiz-adv-x="589" d="M609 790Q609 773 602 757T582 729T553 710T520 703Q491 703 471 723T451 773Q451 790 458 806T478 834T507 853T540 860Q569 860 589 840T609 790ZM396 790Q396 773 389 757T369 729T340 710T307 703Q277 703 257 723T237 773Q237 790 244 806T264 834T293 853T326 860Q356 860 376 840T396 790ZM6 0L153 667H642L608 517H292L269 413H579L546 263H236L211 150H528L495 0H6Z"  />
<glyph unicode="&#xCC;" horiz-adv-x="292" d="M6 0L153 667H325L178 0H6ZM216 723L89 867H225L320 723H216Z"  />
<glyph unicode="&#xCD;" horiz-adv-x="292" d="M6 0L153 667H325L178 0H6ZM288 723H182L341 867H479L288 723Z"  />
<glyph unicode="&#xCE;" horiz-adv-x="292" d="M320 723L269 804L185 723H92L214 867H349L410 723H320ZM6 0L153 667H325L178 0H6Z"  />
<glyph unicode="&#xCF;" horiz-adv-x="292" d="M450 790Q450 773 443 757T423 729T394 710T361 703Q332 703 312 723T292 773Q292 790 299 806T319 834T348 853T381 860Q410 860 430 840T450 790ZM237 790Q237 773 230 757T210 729T181 710T148 703Q118 703 98 723T78 773Q78 790 85 806T105 834T134 853T167 860Q197 860 217 840T237 790ZM6 0L153 667H325L178 0H6Z"  />
<glyph unicode="&#xD0;" horiz-adv-x="750" d="M29 0L87 265H12L42 402H117L176 667H451Q506 667 559 647T654 589T721 498T747 380Q747 315 724 248T650 126T514 35T308 0H29ZM343 150Q396 150 438 168T509 215T553 284T569 368Q569 399 558 426T528 473T481 505T420 517H315L289 402H428L398 265H259L234 150H343Z"  />
<glyph unicode="&#xD1;" horiz-adv-x="740" d="M546 721Q520 721 504 729T475 748T451 767T424 776Q398 776 388 727H309Q322 794 349 827T433 861Q459 861 475 853T504 834T528 815T555 806Q580 806 592 855H671Q657 789 630 755T546 721ZM460 0L266 398L178 0H6L153 667H330L516 288L600 667H773L626 0H460Z"  />
<glyph unicode="&#xD2;" horiz-adv-x="766" d="M452 723L325 867H461L556 723H452ZM374 -12Q302 -12 241 9T134 71T62 166T36 291Q36 372 66 442T148 565T273 648T430 678Q502 678 563 657T670 596T742 501T768 377Q768 296 738 225T656 102T531 19T374 -12ZM384 140Q428 140 465 157T530 205T573 277T589 364Q589 400 577 430T542 481T488 514T420 526Q376 526 339 509T274 461T231 389T215 302Q215 266 227 236T262 185T316 152T384 140Z"  />
<glyph unicode="&#xD3;" horiz-adv-x="766" d="M525 723H419L578 867H716L525 723ZM374 -12Q302 -12 241 9T134 71T62 166T36 291Q36 372 66 442T148 565T273 648T430 678Q502 678 563 657T670 596T742 501T768 377Q768 296 738 225T656 102T531 19T374 -12ZM384 140Q428 140 465 157T530 205T573 277T589 364Q589 400 577 430T542 481T488 514T420 526Q376 526 339 509T274 461T231 389T215 302Q215 266 227 236T262 185T316 152T384 140Z"  />
<glyph unicode="&#xD4;" horiz-adv-x="766" d="M558 723L507 804L423 723H330L452 867H587L648 723H558ZM374 -12Q302 -12 241 9T134 71T62 166T36 291Q36 372 66 442T148 565T273 648T430 678Q502 678 563 657T670 596T742 501T768 377Q768 296 738 225T656 102T531 19T374 -12ZM384 140Q428 140 465 157T530 205T573 277T589 364Q589 400 577 430T542 481T488 514T420 526Q376 526 339 509T274 461T231 389T215 302Q215 266 227 236T262 185T316 152T384 140Z"  />
<glyph unicode="&#xD5;" horiz-adv-x="766" d="M374 -12Q302 -12 241 9T134 71T62 166T36 291Q36 372 66 442T148 565T273 648T430 678Q502 678 563 657T670 596T742 501T768 377Q768 296 738 225T656 102T531 19T374 -12ZM384 140Q428 140 465 157T530 205T573 277T589 364Q589 400 577 430T542 481T488 514T420 526Q376 526 339 509T274 461T231 389T215 302Q215 266 227 236T262 185T316 152T384 140ZM560 721Q534 721 518 729T489 748T465 767T438 776Q412 776 402 727H323Q336 794 363 827T447 861Q473 861 489 853T518 834T542 815T569 806Q594 806 606 855H685Q671 789 644 755T560 721Z"  />
<glyph unicode="&#xD6;" horiz-adv-x="766" d="M687 790Q687 773 680 757T660 729T631 710T598 703Q569 703 549 723T529 773Q529 790 536 806T556 834T585 853T618 860Q647 860 667 840T687 790ZM474 790Q474 773 467 757T447 729T418 710T385 703Q355 703 335 723T315 773Q315 790 322 806T342 834T371 853T404 860Q434 860 454 840T474 790ZM374 -12Q302 -12 241 9T134 71T62 166T36 291Q36 372 66 442T148 565T273 648T430 678Q502 678 563 657T670 596T742 501T768 377Q768 296 738 225T656 102T531 19T374 -12ZM384 140Q428 140 465 157T530 205T573 277T589 364Q589 400 577 430T542 481T488 514T420 526Q376 526 339 509T274 461T231 389T215 302Q215 266 227 236T262 185T316 152T384 140Z"  />
<glyph unicode="&#xD7;" horiz-adv-x="507" d="M265 268L94 129L37 199L210 340L105 474L178 534L281 400L452 539L509 469L338 328L442 194L369 134L265 268Z"  />
<glyph unicode="&#xD8;" horiz-adv-x="766" d="M374 -12Q312 -12 258 4T161 49L110 0H-10L99 106Q69 143 53 189T36 291Q36 372 66 442T148 565T273 648T430 678Q545 678 631 624L675 667H795L696 570Q730 532 749 484T768 377Q768 296 738 225T656 102T531 19T374 -12ZM384 140Q428 140 465 157T530 205T573 277T589 364Q589 387 584 408T568 446L283 168Q325 140 384 140ZM215 302Q215 264 229 233L508 505Q489 515 467 520T420 526Q376 526 339 509T274 461T231 389T215 302Z"  />
<glyph unicode="&#xD9;" horiz-adv-x="750" d="M366 -12Q289 -12 232 5T136 54T79 129T60 226Q60 234 61 248T65 270L153 667H328L241 274Q238 266 238 246Q238 225 246 206T270 171T310 147T366 138Q435 138 472 176T522 274L609 667H783L696 271Q682 210 658 159T595 69T500 10T366 -12ZM443 723L316 867H452L547 723H443Z"  />
<glyph unicode="&#xDA;" horiz-adv-x="750" d="M516 723H410L569 867H707L516 723ZM366 -12Q289 -12 232 5T136 54T79 129T60 226Q60 234 61 248T65 270L153 667H328L241 274Q238 266 238 246Q238 225 246 206T270 171T310 147T366 138Q435 138 472 176T522 274L609 667H783L696 271Q682 210 658 159T595 69T500 10T366 -12Z"  />
<glyph unicode="&#xDB;" horiz-adv-x="750" d="M548 723L497 804L413 723H320L442 867H577L638 723H548ZM366 -12Q289 -12 232 5T136 54T79 129T60 226Q60 234 61 248T65 270L153 667H328L241 274Q238 266 238 246Q238 225 246 206T270 171T310 147T366 138Q435 138 472 176T522 274L609 667H783L696 271Q682 210 658 159T595 69T500 10T366 -12Z"  />
<glyph unicode="&#xDC;" horiz-adv-x="750" d="M679 790Q679 773 672 757T652 729T623 710T590 703Q561 703 541 723T521 773Q521 790 528 806T548 834T577 853T610 860Q639 860 659 840T679 790ZM466 790Q466 773 459 757T439 729T410 710T377 703Q347 703 327 723T307 773Q307 790 314 806T334 834T363 853T396 860Q426 860 446 840T466 790ZM366 -12Q289 -12 232 5T136 54T79 129T60 226Q60 234 61 248T65 270L153 667H328L241 274Q238 266 238 246Q238 225 246 206T270 171T310 147T366 138Q435 138 472 176T522 274L609 667H783L696 271Q682 210 658 159T595 69T500 10T366 -12Z"  />
<glyph unicode="&#xDD;" horiz-adv-x="655" d="M188 0L247 269L82 667H267L358 421L555 667H759L419 269L360 0H188ZM470 723H364L523 867H661L470 723Z"  />
<glyph unicode="&#xDE;" horiz-adv-x="643" d="M6 0L153 667H325L303 565H459Q501 565 536 550T596 508T636 447T650 374Q650 332 635 288T586 206T498 146T366 122H205L178 0H6ZM374 273Q419 273 445 297T471 355Q471 383 452 399T402 415H269L238 273H374Z"  />
<glyph unicode="&#xDF;" horiz-adv-x="665" d="M635 161Q635 126 619 95T575 40T509 2T424 -12Q355 -12 302 7T204 74L285 169Q311 140 345 122T427 104Q451 104 466 115T482 141Q482 155 467 163T428 178T379 194T329 217T291 252T275 308Q275 343 286 367T314 409T351 439T387 462T415 482T427 506Q427 526 407 538T358 551Q314 551 291 526T259 463L157 0H3L105 463Q115 506 135 545T187 613T266 659T373 677Q415 677 454 667T524 637T573 590T591 528Q591 495 579 471T549 430T509 400T470 377T439 356T427 332Q427 321 442 315T481 301T531 285T581 260T619 221T635 161Z"  />
<glyph unicode="&#xE0;" horiz-adv-x="591" d="M274 495Q319 495 358 478T421 426L434 483H587L480 0H327L339 56Q308 21 275 5T201 -12Q120 -12 70 39T20 188Q20 240 36 295T84 394T163 466T274 495ZM301 359Q274 359 252 348T214 318T188 274T179 220Q179 176 206 150T273 124Q300 124 323 136T364 169L397 315Q382 335 357 347T301 359ZM323 556L196 700H332L427 556H323Z"  />
<glyph unicode="&#xE1;" horiz-adv-x="591" d="M274 495Q319 495 358 478T421 426L434 483H587L480 0H327L339 56Q308 21 275 5T201 -12Q120 -12 70 39T20 188Q20 240 36 295T84 394T163 466T274 495ZM301 359Q274 359 252 348T214 318T188 274T179 220Q179 176 206 150T273 124Q300 124 323 136T364 169L397 315Q382 335 357 347T301 359ZM396 556H290L449 700H587L396 556Z"  />
<glyph unicode="&#xE2;" horiz-adv-x="591" d="M274 495Q319 495 358 478T421 426L434 483H587L480 0H327L339 56Q308 21 275 5T201 -12Q120 -12 70 39T20 188Q20 240 36 295T84 394T163 466T274 495ZM301 359Q274 359 252 348T214 318T188 274T179 220Q179 176 206 150T273 124Q300 124 323 136T364 169L397 315Q382 335 357 347T301 359ZM428 556L377 637L293 556H200L322 700H457L518 556H428Z"  />
<glyph unicode="&#xE3;" horiz-adv-x="591" d="M274 495Q319 495 358 478T421 426L434 483H587L480 0H327L339 56Q308 21 275 5T201 -12Q120 -12 70 39T20 188Q20 240 36 295T84 394T163 466T274 495ZM301 359Q274 359 252 348T214 318T188 274T179 220Q179 176 206 150T273 124Q300 124 323 136T364 169L397 315Q382 335 357 347T301 359ZM431 554Q405 554 389 562T360 581T336 600T309 609Q283 609 273 560H194Q207 627 234 660T318 694Q344 694 360 686T389 667T413 648T440 639Q465 639 477 688H556Q542 622 515 588T431 554Z"  />
<glyph unicode="&#xE4;" horiz-adv-x="591" d="M274 495Q319 495 358 478T421 426L434 483H587L480 0H327L339 56Q308 21 275 5T201 -12Q120 -12 70 39T20 188Q20 240 36 295T84 394T163 466T274 495ZM301 359Q274 359 252 348T214 318T188 274T179 220Q179 176 206 150T273 124Q300 124 323 136T364 169L397 315Q382 335 357 347T301 359ZM557 623Q557 606 550 590T530 562T501 543T468 536Q439 536 419 556T399 606Q399 623 406 639T426 667T455 686T488 693Q517 693 537 673T557 623ZM344 623Q344 606 337 590T317 562T288 543T255 536Q225 536 205 556T185 606Q185 623 192 639T212 667T241 686T274 693Q304 693 324 673T344 623Z"  />
<glyph unicode="&#xE5;" horiz-adv-x="591" d="M274 495Q319 495 358 478T421 426L434 483H587L480 0H327L339 56Q308 21 275 5T201 -12Q120 -12 70 39T20 188Q20 240 36 295T84 394T163 466T274 495ZM301 359Q274 359 252 348T214 318T188 274T179 220Q179 176 206 150T273 124Q300 124 323 136T364 169L397 315Q382 335 357 347T301 359ZM366 522Q321 522 294 549T267 621Q267 645 276 666T302 704T340 729T386 739Q431 739 458 712T485 640Q485 616 476 595T450 557T412 532T366 522ZM373 591Q390 591 403 603T416 634Q416 651 406 661T379 671Q362 671 349 658T336 628Q336 611 346 601T373 591Z"  />
<glyph unicode="&#xE6;" horiz-adv-x="902" d="M301 359Q274 359 252 348T214 318T188 274T179 220Q179 176 206 150T273 124Q300 124 323 136T364 169L397 315Q382 335 357 347T301 359ZM480 0H327L339 56Q308 21 275 5T201 -12Q120 -12 70 39T20 188Q20 240 36 295T84 394T163 466T274 495Q319 495 358 478T421 426L434 483H587L577 436Q602 461 635 478T710 495Q791 495 836 445T881 289Q881 263 877 235T870 193H529V187Q529 178 536 165T559 140T597 119T652 110Q681 110 709 118T758 140L805 35Q769 12 728 0T655 -12Q592 -12 553 10T495 66L480 0ZM744 293V299Q744 311 739 325T723 350T695 368T653 376Q631 376 613 368T580 348T557 322T545 293H744Z"  />
<glyph unicode="&#xE7;" horiz-adv-x="500" d="M213 -198Q171 -198 139 -185T89 -155L128 -101Q146 -118 168 -127T213 -137Q233 -137 245 -130T257 -107Q257 -99 251 -93T231 -87Q215 -87 204 -100L158 -70L197 -5Q114 13 68 70T21 210Q21 270 43 322T103 412T194 473T307 495Q386 495 436 467T512 397L397 310Q384 331 361 345T306 359Q277 359 254 348T213 318T187 274T177 219Q177 174 207 149T282 124Q310 124 333 136T373 167L456 66Q443 52 425 38T382 13T329 -5T267 -12H263L239 -49Q247 -44 253 -42T269 -39Q295 -39 312 -56T329 -103Q329 -148 295 -173T213 -198Z"  />
<glyph unicode="&#xE8;" horiz-adv-x="548" d="M278 -12Q220 -12 173 2T92 45T40 114T21 207Q21 265 42 317T100 409T190 472T304 495Q350 495 390 481T461 439T508 371T526 277Q526 254 523 230T516 193H174V187Q174 178 181 165T202 138T238 116T290 107Q320 107 351 115T403 137L450 35Q415 11 369 0T278 -12ZM389 293Q390 294 390 296T390 300Q390 312 385 325T369 349T340 368T297 376Q275 376 257 368T224 348T201 322T189 293H389ZM321 556L194 700H330L425 556H321Z"  />
<glyph unicode="&#xE9;" horiz-adv-x="548" d="M394 556H288L447 700H585L394 556ZM278 -12Q220 -12 173 2T92 45T40 114T21 207Q21 265 42 317T100 409T190 472T304 495Q350 495 390 481T461 439T508 371T526 277Q526 254 523 230T516 193H174V187Q174 178 181 165T202 138T238 116T290 107Q320 107 351 115T403 137L450 35Q415 11 369 0T278 -12ZM389 293Q390 294 390 296T390 300Q390 312 385 325T369 349T340 368T297 376Q275 376 257 368T224 348T201 322T189 293H389Z"  />
<glyph unicode="&#xEA;" horiz-adv-x="548" d="M426 556L375 637L291 556H198L320 700H455L516 556H426ZM278 -12Q220 -12 173 2T92 45T40 114T21 207Q21 265 42 317T100 409T190 472T304 495Q350 495 390 481T461 439T508 371T526 277Q526 254 523 230T516 193H174V187Q174 178 181 165T202 138T238 116T290 107Q320 107 351 115T403 137L450 35Q415 11 369 0T278 -12ZM389 293Q390 294 390 296T390 300Q390 312 385 325T369 349T340 368T297 376Q275 376 257 368T224 348T201 322T189 293H389Z"  />
<glyph unicode="&#xEB;" horiz-adv-x="548" d="M556 623Q556 606 549 590T529 562T500 543T467 536Q438 536 418 556T398 606Q398 623 405 639T425 667T454 686T487 693Q516 693 536 673T556 623ZM343 623Q343 606 336 590T316 562T287 543T254 536Q224 536 204 556T184 606Q184 623 191 639T211 667T240 686T273 693Q303 693 323 673T343 623ZM278 -12Q220 -12 173 2T92 45T40 114T21 207Q21 265 42 317T100 409T190 472T304 495Q350 495 390 481T461 439T508 371T526 277Q526 254 523 230T516 193H174V187Q174 178 181 165T202 138T238 116T290 107Q320 107 351 115T403 137L450 35Q415 11 369 0T278 -12ZM389 293Q390 294 390 296T390 300Q390 312 385 325T369 349T340 368T297 376Q275 376 257 368T224 348T201 322T189 293H389Z"  />
<glyph unicode="&#xEC;" horiz-adv-x="266" d="M2 0L109 483H263L156 0H2ZM168 556L41 700H177L272 556H168Z"  />
<glyph unicode="&#xED;" horiz-adv-x="266" d="M238 556H132L291 700H429L238 556ZM2 0L109 483H263L156 0H2Z"  />
<glyph unicode="&#xEE;" horiz-adv-x="266" d="M273 556L222 637L138 556H45L167 700H302L363 556H273ZM2 0L109 483H263L156 0H2Z"  />
<glyph unicode="&#xEF;" horiz-adv-x="266" d="M403 623Q403 606 396 590T376 562T347 543T314 536Q285 536 265 556T245 606Q245 623 252 639T272 667T301 686T334 693Q363 693 383 673T403 623ZM190 623Q190 606 183 590T163 562T134 543T101 536Q71 536 51 556T31 606Q31 623 38 639T58 667T87 686T120 693Q150 693 170 673T190 623ZM2 0L109 483H263L156 0H2Z"  />
<glyph unicode="&#xF0;" horiz-adv-x="576" d="M125 540L242 574Q230 585 218 594T195 612L302 723Q366 673 413 624L520 656L537 589L463 567Q514 503 537 439T561 307Q561 243 542 185T485 84T395 14T272 -12Q215 -12 168 3T88 45T36 112T17 200Q17 252 35 298T86 377T162 430T257 450Q318 450 358 422T420 341Q413 383 381 429T303 519L141 471L125 540ZM275 124Q326 124 357 155T389 234Q389 267 363 291T286 315Q261 315 241 307T206 283T183 248T175 206Q175 167 200 146T275 124Z"  />
<glyph unicode="&#xF1;" horiz-adv-x="593" d="M329 0L389 271Q391 278 392 287T394 306Q394 335 374 347T328 359Q294 359 268 344T225 312L156 0H2L109 483H263L249 424Q263 437 279 449T314 472T356 488T406 495Q479 495 520 460T561 370Q561 363 560 351T556 330L483 0H329ZM436 554Q410 554 394 562T365 581T341 600T314 609Q288 609 278 560H199Q212 627 239 660T323 694Q349 694 365 686T394 667T418 648T445 639Q470 639 482 688H561Q547 622 520 588T436 554Z"  />
<glyph unicode="&#xF2;" horiz-adv-x="576" d="M269 -12Q208 -12 162 5T84 52T36 122T20 210Q20 266 41 317T99 408T189 471T304 495Q365 495 411 478T489 431T537 360T553 272Q553 216 532 165T474 74T384 12T269 -12ZM275 124Q302 124 324 136T362 167T387 212T396 265Q396 310 370 334T299 359Q272 359 250 347T211 316T187 271T178 218Q178 173 204 149T275 124ZM322 556L195 700H331L426 556H322Z"  />
<glyph unicode="&#xF3;" horiz-adv-x="576" d="M393 556H287L446 700H584L393 556ZM269 -12Q208 -12 162 5T84 52T36 122T20 210Q20 266 41 317T99 408T189 471T304 495Q365 495 411 478T489 431T537 360T553 272Q553 216 532 165T474 74T384 12T269 -12ZM275 124Q302 124 324 136T362 167T387 212T396 265Q396 310 370 334T299 359Q272 359 250 347T211 316T187 271T178 218Q178 173 204 149T275 124Z"  />
<glyph unicode="&#xF4;" horiz-adv-x="576" d="M426 556L375 637L291 556H198L320 700H455L516 556H426ZM269 -12Q208 -12 162 5T84 52T36 122T20 210Q20 266 41 317T99 408T189 471T304 495Q365 495 411 478T489 431T537 360T553 272Q553 216 532 165T474 74T384 12T269 -12ZM275 124Q302 124 324 136T362 167T387 212T396 265Q396 310 370 334T299 359Q272 359 250 347T211 316T187 271T178 218Q178 173 204 149T275 124Z"  />
<glyph unicode="&#xF5;" horiz-adv-x="576" d="M269 -12Q208 -12 162 5T84 52T36 122T20 210Q20 266 41 317T99 408T189 471T304 495Q365 495 411 478T489 431T537 360T553 272Q553 216 532 165T474 74T384 12T269 -12ZM275 124Q302 124 324 136T362 167T387 212T396 265Q396 310 370 334T299 359Q272 359 250 347T211 316T187 271T178 218Q178 173 204 149T275 124ZM429 554Q403 554 387 562T358 581T334 600T307 609Q281 609 271 560H192Q205 627 232 660T316 694Q342 694 358 686T387 667T411 648T438 639Q463 639 475 688H554Q540 622 513 588T429 554Z"  />
<glyph unicode="&#xF6;" horiz-adv-x="576" d="M555 623Q555 606 548 590T528 562T499 543T466 536Q437 536 417 556T397 606Q397 623 404 639T424 667T453 686T486 693Q515 693 535 673T555 623ZM342 623Q342 606 335 590T315 562T286 543T253 536Q223 536 203 556T183 606Q183 623 190 639T210 667T239 686T272 693Q302 693 322 673T342 623ZM269 -12Q208 -12 162 5T84 52T36 122T20 210Q20 266 41 317T99 408T189 471T304 495Q365 495 411 478T489 431T537 360T553 272Q553 216 532 165T474 74T384 12T269 -12ZM275 124Q302 124 324 136T362 167T387 212T396 265Q396 310 370 334T299 359Q272 359 250 347T211 316T187 271T178 218Q178 173 204 149T275 124Z"  />
<glyph unicode="&#xF7;" horiz-adv-x="511" d="M39 291L60 383H513L492 291H39ZM230 95Q204 95 186 113T168 158Q168 188 190 210T243 232Q269 232 287 214T305 169Q305 138 283 117T230 95ZM307 441Q281 441 263 459T245 504Q245 534 267 556T320 578Q346 578 364 560T382 515Q382 484 360 463T307 441Z"  />
<glyph unicode="&#xF8;" horiz-adv-x="576" d="M-28 0L59 80Q20 134 20 210Q20 266 41 317T99 408T189 471T304 495Q355 495 395 483T466 450L503 483H601L513 403Q533 376 543 343T553 272Q553 216 532 165T474 74T384 12T269 -12Q217 -12 177 0T105 34L67 0H-28ZM275 124Q302 124 324 136T362 167T387 212T396 265Q396 282 392 294L219 137Q241 124 275 124ZM178 218Q178 203 181 190L353 346Q329 359 299 359Q272 359 250 347T211 316T187 271T178 218Z"  />
<glyph unicode="&#xF9;" horiz-adv-x="592" d="M262 483L201 204Q199 197 198 191T197 178Q197 149 218 137T268 124Q299 124 324 139T367 172L435 483H589L482 0H328L342 59Q328 46 312 34T277 11T235 -5T185 -12Q112 -12 71 23T30 113Q30 120 31 132T35 153L109 483H262ZM328 556L201 700H337L432 556H328Z"  />
<glyph unicode="&#xFA;" horiz-adv-x="592" d="M402 556H296L455 700H593L402 556ZM262 483L201 204Q199 197 198 191T197 178Q197 149 218 137T268 124Q299 124 324 139T367 172L435 483H589L482 0H328L342 59Q328 46 312 34T277 11T235 -5T185 -12Q112 -12 71 23T30 113Q30 120 31 132T35 153L109 483H262Z"  />
<glyph unicode="&#xFB;" horiz-adv-x="592" d="M433 556L382 637L298 556H205L327 700H462L523 556H433ZM262 483L201 204Q199 197 198 191T197 178Q197 149 218 137T268 124Q299 124 324 139T367 172L435 483H589L482 0H328L342 59Q328 46 312 34T277 11T235 -5T185 -12Q112 -12 71 23T30 113Q30 120 31 132T35 153L109 483H262Z"  />
<glyph unicode="&#xFC;" horiz-adv-x="592" d="M564 623Q564 606 557 590T537 562T508 543T475 536Q446 536 426 556T406 606Q406 623 413 639T433 667T462 686T495 693Q524 693 544 673T564 623ZM351 623Q351 606 344 590T324 562T295 543T262 536Q232 536 212 556T192 606Q192 623 199 639T219 667T248 686T281 693Q311 693 331 673T351 623ZM262 483L201 204Q199 197 198 191T197 178Q197 149 218 137T268 124Q299 124 324 139T367 172L435 483H589L482 0H328L342 59Q328 46 312 34T277 11T235 -5T185 -12Q112 -12 71 23T30 113Q30 120 31 132T35 153L109 483H262Z"  />
<glyph unicode="&#xFD;" horiz-adv-x="524" d="M1 -52Q10 -56 23 -57T51 -59Q70 -59 83 -53T106 -33L125 -2L43 483H201L241 177L420 483H587L246 -69Q224 -105 202 -129T155 -168T102 -189T41 -196Q18 -196 -5 -193T-48 -184L1 -52ZM362 556H256L415 700H553L362 556Z"  />
<glyph unicode="&#xFE;" horiz-adv-x="589" d="M315 -12Q270 -12 231 5T168 57L115 -184H-39L149 667H303L250 427Q282 463 315 479T388 495Q470 495 520 443T570 294Q570 242 554 188T506 89T426 17T315 -12ZM289 124Q315 124 337 135T376 165T402 209T411 262Q411 307 384 333T317 359Q290 359 267 347T225 314L193 168Q208 148 233 136T289 124Z"  />
<glyph unicode="&#xFF;" horiz-adv-x="524" d="M1 -52Q10 -56 23 -57T51 -59Q70 -59 83 -53T106 -33L125 -2L43 483H201L241 177L420 483H587L246 -69Q224 -105 202 -129T155 -168T102 -189T41 -196Q18 -196 -5 -193T-48 -184L1 -52ZM525 623Q525 606 518 590T498 562T469 543T436 536Q407 536 387 556T367 606Q367 623 374 639T394 667T423 686T456 693Q485 693 505 673T525 623ZM312 623Q312 606 305 590T285 562T256 543T223 536Q193 536 173 556T153 606Q153 623 160 639T180 667T209 686T242 693Q272 693 292 673T312 623Z"  />
<glyph unicode="&#x110;" horiz-adv-x="750" d="M29 0L87 265H12L42 402H117L176 667H451Q506 667 559 647T654 589T721 498T747 380Q747 315 724 248T650 126T514 35T308 0H29ZM343 150Q396 150 438 168T509 215T553 284T569 368Q569 399 558 426T528 473T481 505T420 517H315L289 402H428L398 265H259L234 150H343Z"  />
<glyph unicode="&#x131;" horiz-adv-x="266" d="M2 0L109 483H263L156 0H2Z"  />
<glyph unicode="&#x152;" horiz-adv-x="1073" d="M494 0L507 62Q474 27 427 8T315 -12Q258 -12 208 10T119 73T58 168T36 291Q36 378 66 449T149 571T270 649T415 677Q483 677 535 654T623 583L641 667H1130L1097 517H780L758 413H1067L1034 263H724L699 150H1016L983 0H494ZM586 418Q568 469 527 497T428 525Q380 525 341 507T274 458T231 387T215 302Q215 265 227 235T261 184T312 152T376 140Q427 140 471 163T544 228L586 418Z"  />
<glyph unicode="&#x153;" horiz-adv-x="916" d="M548 193V187Q548 176 555 162T577 136T613 116T662 107Q692 107 723 115T774 137L820 35Q791 15 747 2T650 -12Q614 -12 583 -4T528 17T485 46T457 79Q440 63 421 47T380 17T329 -4T267 -12Q212 -12 167 3T89 46T38 116T20 210Q20 263 40 314T96 406T185 470T302 495Q336 495 365 487T418 465T459 435T488 403Q504 419 523 435T564 465T615 486T677 495Q720 495 759 482T829 441T878 373T896 277Q896 254 893 231T886 193H548ZM759 293Q760 295 760 299Q760 312 755 325T740 350T712 368T670 376Q648 376 630 368T597 348T575 321T563 293H759ZM392 265Q392 314 365 336T297 359Q272 359 251 349T213 319T188 274T178 218Q178 173 203 149T273 124Q299 124 321 135T358 166T383 210T392 265Z"  />
<glyph unicode="&#x160;" horiz-adv-x="606" d="M350 723L289 867H378L429 786L513 867H607L485 723H350ZM308 -12Q257 -12 210 -3T121 23T47 63T-10 115L95 239Q130 193 191 165T322 136Q364 136 381 153T399 189Q399 208 375 220T316 246T238 274T161 312T101 367T77 449Q77 491 95 532T147 605T233 657T350 677Q431 677 504 649T629 567L524 447Q504 468 480 484T429 510T375 525T323 530Q294 530 276 517T258 483Q258 465 282 453T342 428T419 400T497 361T557 305T581 223Q581 174 562 131T508 57T422 7T308 -12Z"  />
<glyph unicode="&#x161;" horiz-adv-x="484" d="M252 556L191 700H280L331 619L415 700H509L387 556H252ZM225 -12Q158 -12 95 10T-14 76L67 175Q78 163 97 150T139 126T187 107T239 100Q262 100 276 110T290 135Q290 151 272 160T228 178T170 196T113 222T68 262T50 325Q50 358 63 388T103 442T168 480T257 495Q318 495 375 475T472 417L398 322Q389 332 374 342T340 362T300 376T257 382Q230 382 217 372T203 348Q203 335 221 327T265 311T323 292T381 266T426 224T444 162Q444 126 429 94T386 39T317 2T225 -12Z"  />
<glyph unicode="&#x178;" horiz-adv-x="655" d="M633 790Q633 773 626 757T606 729T577 710T544 703Q515 703 495 723T475 773Q475 790 482 806T502 834T531 853T564 860Q593 860 613 840T633 790ZM420 790Q420 773 413 757T393 729T364 710T331 703Q301 703 281 723T261 773Q261 790 268 806T288 834T317 853T350 860Q380 860 400 840T420 790ZM188 0L247 269L82 667H267L358 421L555 667H759L419 269L360 0H188Z"  />
<glyph unicode="&#x17D;" horiz-adv-x="596" d="M335 723L274 867H363L414 786L498 867H592L470 723H335ZM-15 0L15 137L374 517H99L132 667H643L613 530L253 150H536L503 0H-15Z"  />
<glyph unicode="&#x17E;" horiz-adv-x="483" d="M241 556L180 700H269L320 619L404 700H498L376 556H241ZM-16 0L8 113L250 349H61L91 483H494L469 374L223 133H420L391 0H-16Z"  />
<glyph unicode="&#x192;" horiz-adv-x="465" d="M-55 -161L32 231H-16V365H61L93 511Q109 585 155 631T282 677Q321 677 361 666T432 626L370 505Q362 516 349 521T322 527Q275 527 261 472L237 365H337V231H208L120 -161H-55Z"  />
<glyph unicode="&#x2C6;" horiz-adv-x="318" d="M297 556L246 637L162 556H69L191 700H326L387 556H297Z"  />
<glyph unicode="&#x2C7;" horiz-adv-x="318" d="M162 556L101 700H190L241 619L325 700H419L297 556H162Z"  />
<glyph unicode="&#x2DA;" horiz-adv-x="215" d="M183 525Q138 525 111 552T84 624Q84 648 93 669T119 707T157 732T203 742Q248 742 275 715T302 643Q302 619 293 598T267 560T229 535T183 525ZM190 594Q207 594 220 606T233 637Q233 654 223 664T196 674Q179 674 166 661T153 631Q153 614 163 604T190 594Z"  />
<glyph unicode="&#x2DC;" horiz-adv-x="334" d="M307 554Q281 554 265 562T236 581T212 600T185 609Q159 609 149 560H70Q83 627 110 660T194 694Q220 694 236 686T265 667T289 648T316 639Q341 639 353 688H432Q418 622 391 588T307 554Z"  />
<glyph unicode="&#x2013;" horiz-adv-x="593" d="M15 178L44 307H577L548 178H15Z"  />
<glyph unicode="&#x2014;" horiz-adv-x="833" d="M15 178L44 307H817L788 178H15Z"  />
<glyph unicode="&#x2018;" horiz-adv-x="268" d="M82 459Q82 490 94 522T128 583T179 636T244 678L297 623Q284 617 269 609T239 589T212 566T192 539Q194 540 198 540T204 540Q233 540 254 522T275 465Q275 444 266 426T243 395T210 373T172 365Q154 365 138 371T110 389T90 418T82 459Z"  />
<glyph unicode="&#x2019;" horiz-adv-x="268" d="M308 584Q308 553 296 521T262 460T210 406T145 364L93 419Q106 425 121 433T151 453T178 476T198 503Q195 502 192 502T186 502Q157 502 136 520T114 577Q114 598 123 616T146 647T179 669T218 677Q235 677 251 671T280 654T300 625T308 584Z"  />
<glyph unicode="&#x201A;" horiz-adv-x="268" d="M197 83Q197 52 185 20T151 -41T100 -94T35 -136L-18 -81Q-5 -75 10 -67T40 -47T67 -24T87 3Q85 2 81 2T75 2Q46 2 25 20T4 77Q4 97 13 115T36 146T68 168T107 176Q125 176 141 170T169 153T189 124T197 83Z"  />
<glyph unicode="&#x201C;" horiz-adv-x="493" d="M306 459Q306 490 318 522T352 583T403 636T468 678L521 623Q507 617 492 609T462 589T435 566T416 539Q418 540 422 540T428 540Q456 540 477 522T499 465Q499 444 490 426T467 395T434 373T396 365Q378 365 362 371T334 389T314 418T306 459ZM81 459Q81 490 93 522T127 583T178 636T243 678L296 623Q282 617 267 609T237 589T210 566T191 539Q193 540 196 540T202 540Q231 540 252 522T274 465Q274 444 265 426T242 395T208 373T170 365Q135 365 108 388T81 459Z"  />
<glyph unicode="&#x201D;" horiz-adv-x="493" d="M308 584Q308 553 296 521T262 460T210 406T145 364L93 419Q106 425 121 433T151 453T178 476T198 503Q195 502 192 502T186 502Q157 502 136 520T114 577Q114 598 123 616T146 647T179 669T218 677Q235 677 251 671T280 654T300 625T308 584ZM533 584Q533 553 521 521T487 460T436 406T371 364L318 419Q331 425 346 433T376 453T403 476T423 503Q421 502 417 502T411 502Q382 502 361 520T340 577Q340 598 349 616T372 647T404 669T443 677Q460 677 476 671T505 654T525 625T533 584Z"  />
<glyph unicode="&#x201E;" horiz-adv-x="493" d="M197 83Q197 52 185 20T151 -41T100 -94T35 -136L-18 -81Q-5 -75 10 -67T40 -47T67 -24T87 3Q85 2 81 2T75 2Q46 2 25 20T4 77Q4 97 13 115T36 146T68 168T107 176Q125 176 141 170T169 153T189 124T197 83ZM422 83Q422 52 410 20T376 -41T325 -94T260 -136L207 -81Q220 -75 235 -67T265 -47T292 -24T312 3Q310 2 306 2T300 2Q271 2 250 20T229 77Q229 97 238 115T261 146T293 168T332 176Q350 176 366 170T394 153T414 124T422 83Z"  />
<glyph unicode="&#x2020;" horiz-adv-x="284" d="M238 522L199 327H120L168 522L78 518L94 589L183 586L198 677H277L252 586L342 589L326 518L238 522Z"  />
<glyph unicode="&#x2021;" horiz-adv-x="284" d="M326 518L238 522L197 337L287 341L271 270L183 273L166 180H87L112 273L23 270L39 341L126 337L167 522L78 518L94 589L182 586L198 677H277L252 586L342 589L326 518Z"  />
<glyph unicode="&#x2022;" horiz-adv-x="358" d="M304 254Q304 226 293 202T263 159T219 130T165 119Q117 119 86 150T54 230Q54 258 65 283T95 326T139 355T192 366Q241 366 272 335T304 254Z"  />
<glyph unicode="&#x2026;" horiz-adv-x="807" d="M90 -12Q54 -12 30 13T5 74Q5 95 13 113T35 146T68 168T108 176Q126 176 141 169T168 151T186 123T193 89Q193 68 185 50T162 18T130 -4T90 -12ZM359 -12Q323 -12 299 13T274 74Q274 95 282 113T304 146T337 168T377 176Q395 176 410 169T437 151T455 123T462 89Q462 68 454 50T431 18T399 -4T359 -12ZM628 -12Q592 -12 568 13T543 74Q543 95 551 113T573 146T606 168T646 176Q664 176 679 169T706 151T724 123T731 89Q731 68 723 50T700 18T668 -4T628 -12Z"  />
<glyph unicode="&#x2030;" horiz-adv-x="1141" d="M76 0L649 667H736L162 0H76ZM542 -12Q509 -12 480 -3T427 25T391 69T377 128Q377 171 392 207T433 268T493 308T565 322Q598 322 628 313T681 285T717 241T731 182Q731 139 716 103T675 42T615 2T542 -12ZM546 80Q578 80 601 105T624 172Q624 197 607 213T562 230Q530 230 507 206T483 138Q483 113 500 97T546 80ZM244 343Q211 343 182 352T129 380T93 424T79 483Q79 526 94 562T135 623T195 663T267 677Q300 677 330 668T383 640T419 596T433 537Q433 493 418 458T377 397T317 357T244 343ZM248 435Q280 435 303 459T326 527Q326 552 309 568T264 585Q232 585 209 560T185 493Q185 467 202 451T248 435ZM912 -12Q879 -12 850 -3T797 25T761 69T747 128Q747 171 762 207T803 268T863 308T935 322Q968 322 998 313T1051 285T1087 241T1101 182Q1101 139 1086 103T1045 42T985 2T912 -12ZM916 80Q948 80 971 105T994 172Q994 197 977 213T932 230Q900 230 877 206T853 138Q853 113 870 97T916 80Z"  />
<glyph unicode="&#x2039;" horiz-adv-x="359" d="M149 63L29 243L229 420H372L168 238L284 63H149Z"  />
<glyph unicode="&#x203A;" horiz-adv-x="359" d="M212 420L332 240L132 63H-11L193 245L77 420H212Z"  />
<glyph unicode="&#x2044;" horiz-adv-x="170" d="M-140 0H-226L347 667H435L-140 0Z"  />
<glyph unicode="&#x20AC;" horiz-adv-x="715" d="M403 -12Q342 -12 288 4T190 49T116 122T73 219H11L31 311H65Q66 323 67 334T70 358H41L62 450H96Q119 503 156 545T240 616T343 662T459 678Q526 678 578 661T668 615T730 549T768 473L602 419Q588 470 548 498T451 526Q403 526 364 506T295 450H517L496 358H250Q248 347 246 335T244 311H486L465 219H265Q285 183 323 162T413 140Q454 140 494 161T558 217L692 129Q662 88 626 61T551 18T475 -5T403 -12Z"  />
<glyph unicode="&#x2122;" horiz-adv-x="454" d="M436 447L476 629L361 447H353L318 629L278 447H250L298 667H341L370 507L469 667H512L464 447H436ZM195 641L152 447H124L167 641H105L110 667H262L257 641H195Z"  />
<glyph unicode="&#xF656;" horiz-adv-x="311" d="M83 0L138 251L56 185L5 254L187 400H285L197 0H83Z"  />
<glyph unicode="&#xF657;" horiz-adv-x="402" d="M-10 0L9 86Q88 131 137 161T213 211T249 246T258 275Q258 295 242 305T199 316Q166 316 136 303T87 273L41 349Q73 377 117 391T204 406Q242 406 273 398T328 374T363 336T376 286Q376 236 327 191T176 90H336L316 0H-10Z"  />
<glyph unicode="&#xF658;" horiz-adv-x="402" d="M345 111Q345 89 334 68T303 31T252 4T182 -7Q119 -7 68 13T-6 67L63 137Q84 108 115 96T176 83Q206 83 219 95T232 124Q232 141 210 149T148 158Q140 158 129 158T113 157L132 246Q136 246 144 246T163 245T183 245T199 245Q261 245 261 281Q261 299 239 307T188 316Q161 316 135 308T86 282L50 353Q79 378 119 392T200 406Q282 406 329 377T377 297Q377 262 350 232T267 198Q300 190 322 169T345 111Z"  />
<glyph unicode="&#xF659;" horiz-adv-x="402" d="M296 78L280 0H167L183 78H-13L4 155L208 400H368L316 167H366L346 78H296ZM233 301L119 167H203L233 301Z"  />


</font>
</defs>
</svg>
